<svg xmlns="http://www.w3.org/2000/svg" width="113.993" height="45.207" viewBox="0 0 113.993 45.207">
  <g id="logo_andy" transform="translate(-1030.156 -337.793)">
    <g id="Сгруппировать_67" data-name="Сгруппировать 67">
      <text id="andy." transform="translate(1077.149 367.793)" font-size="28" font-family="PlayfairDisplay-Regular, Playfair Display"><tspan x="0" y="0">andy.</tspan></text>
    </g>
    <text id="EST_2007" data-name="EST 2007" transform="translate(1077 380)" font-size="11" font-family="SegoeUI, Segoe UI"><tspan x="0" y="0">EST 2007</tspan></text>
    <g id="shape" transform="translate(1030.156 344.847)">
      <path id="Ellipse_1" data-name="Ellipse 1" d="M1052.388,353.374a.124.124,0,0,1,.085.043.16.16,0,0,0,.033.025l-.076-.025Zm5.514,25.66a.123.123,0,0,1-.042.085.342.342,0,0,1-.254-.085.179.179,0,0,1,0-.17l.085-.17a.328.328,0,0,0,.042-.127.473.473,0,0,1,.149.021,1.375,1.375,0,0,1,.148.064.38.38,0,0,1-.042.17A1.568,1.568,0,0,0,1057.9,379.034Zm.255-.933v-.085a.068.068,0,0,1,.042-.064.187.187,0,0,1,.085-.021v.085a.069.069,0,0,1-.042.064A.191.191,0,0,1,1058.156,378.1Zm2.927-13.4.127-.043v.212h-.042l-.042.042a.119.119,0,0,1-.042-.085l-.17-.17.042-.042A.467.467,0,0,0,1061.083,364.7Zm-.382,1.315h.042l-.042.042Zm-.975-1.06h.127l.085.042a.542.542,0,0,1,.127.212.331.331,0,0,1-.042.128c-.028,0-.071-.028-.127-.085l-.042-.043h-.085a.267.267,0,0,1-.127-.169l.042-.043A.038.038,0,0,0,1059.726,364.953Zm-.085-.17c-.029.029-.042.049-.042.064a.019.019,0,0,1-.021.021c-.015,0-.036.015-.064.042l-.042-.042a.312.312,0,0,1-.063-.085c-.015-.028-.015-.049,0-.064a.527.527,0,0,1,.148-.064A.462.462,0,0,0,1059.641,364.783Zm-.551,2.969c-.057.029-.071.015-.042-.042Q1059.131,367.667,1059.089,367.752Zm-.17-.085c-.085.029-.114,0-.085-.085A.075.075,0,0,1,1058.92,367.667Zm-.382-3.86h-.042a.067.067,0,0,1-.063-.042.362.362,0,0,0-.063-.085c.028,0,.042-.007.042-.021s.014-.021.042-.021V363.6a.089.089,0,0,1,.064.021l.063.064v.042h.127v.043a.038.038,0,0,1-.042.042l.042.042h.085a1.328,1.328,0,0,0,.17.212.125.125,0,0,1,.042.085h.127l.212.254a.088.088,0,0,1-.021.064l-.064.064a.038.038,0,0,0-.042.042.382.382,0,0,1-.339-.212,4.567,4.567,0,0,0-.255-.382A.474.474,0,0,0,1058.538,363.807Zm-2.036-2.587c-.029,0-.042-.007-.042-.021v-.064h.064a.019.019,0,0,1,.021.021C1056.545,361.171,1056.53,361.193,1056.5,361.22Zm-.3-.636a.749.749,0,0,1,.085.106c.028.042.028.078,0,.106a.513.513,0,0,1-.212.085V360.8a.631.631,0,0,1-.085-.106c-.029-.043-.029-.078,0-.106a.529.529,0,0,1,.212-.085Zm-.679-.849c0-.028-.007-.042-.021-.042s-.015-.014,0-.042a.32.32,0,0,1,.063-.085.179.179,0,0,1,.148.106.443.443,0,0,1,.064.233.247.247,0,0,1-.042.17c-.085,0-.127-.028-.127-.085a.378.378,0,0,1,.042-.17l-.064-.064A.09.09,0,0,0,1055.527,359.735Zm5.768,3.733a.087.087,0,0,1,.021-.064.172.172,0,0,1,.106-.021v.085a.337.337,0,0,1,.042.127.173.173,0,0,1-.042.127.617.617,0,0,1-.127.318.987.987,0,0,1-.254.276.125.125,0,0,0-.085-.043.373.373,0,0,0-.085-.064.07.07,0,0,0-.085.021l-.424-.509a.122.122,0,0,0-.085.043l-.382-.551-.127.042a4.565,4.565,0,0,0-.255-.382.7.7,0,0,0-.127-.17h-.085a.462.462,0,0,1-.085-.127.761.761,0,0,0-.127-.233q-.086-.106-.17-.191a.037.037,0,0,1-.042.042h-.042a3.947,3.947,0,0,0-.3-.424h-.085a2.287,2.287,0,0,0-.212-.339l-.085-.085h-.042l.042-.085-.042-.042h-.085a.519.519,0,0,1-.127-.212,4.58,4.58,0,0,0-.255-.382h-.085a.921.921,0,0,1-.127-.3,1.28,1.28,0,0,0-.127-.318,1.323,1.323,0,0,0-.212-.276h-.085a.445.445,0,0,1-.085-.169q-.085-.212-.191-.445c-.071-.155-.163-.234-.276-.234a.122.122,0,0,0,.042-.084v-.043h-.085l-.255-.509h-.085a2.41,2.41,0,0,0-.127-.3l-.085-.17h-.085v-.042a.319.319,0,0,1-.064-.085c-.015-.028-.007-.07.021-.127a.136.136,0,0,0,.085-.128.351.351,0,0,0-.148-.042h-.106a.084.084,0,0,1-.063-.021.083.083,0,0,1-.021-.064v-.042l.042-.043v-.042h-.17q-.085-.169-.169-.382h-.085a2.33,2.33,0,0,1-.127-.424h.042l.042-.043a.316.316,0,0,0,.127.043h.212l.085.169h.042a.247.247,0,0,1,.085.17.037.037,0,0,0,.042.043h.042a.037.037,0,0,0,.042.042l.085.17a.119.119,0,0,0,.042.085l.042.043a.136.136,0,0,1,.085.127.18.18,0,0,0,.021.085.067.067,0,0,0,.064.042l.042.043a.125.125,0,0,1,.042.085c.028.057.049.1.064.127a.193.193,0,0,1,.021.085h-.17v-.042l.042-.085h-.085v-.043h-.191l-.021-.042c0,.029.007.042.021.042l.064.128h.085a50.367,50.367,0,0,1,.085.169h.085a.386.386,0,0,1,.042.17c.085,0,.127.007.127.021a.377.377,0,0,1-.042.106h.085c0,.029.007.043.021.043s.035-.014.063-.043h.085l.042.128-.042.085h.212a.112.112,0,0,0,.127.127.106.106,0,0,1,0,.17h.085l.424.849h.085a.644.644,0,0,0,.127.17.918.918,0,0,0,.127.3h.085a.939.939,0,0,1,.17.382l-.064.064c-.015.015-.015.021,0,.021h.149l.339.509h.085l.127.254h.127l-.042.085a.124.124,0,0,0-.042.085.384.384,0,0,1,.17-.043l.17.3h.127l.3.509h.127l.382.551h.085l.085.085c.057.085.127.184.212.3a.037.037,0,0,0,.042-.042h.042a.523.523,0,0,1,.085.127c.056.085.113.163.17.233a.517.517,0,0,0,.169.149c.057,0,.085.007.085.021a.38.38,0,0,1-.042.106.038.038,0,0,1,.042.042l.085.085a.124.124,0,0,0,.085-.042c0,.085.042.1.127.042v-.071c.056.016.085.019.085.008v-.191Zm2.015,4.835c.014,0,.021.015.021.042h.042a.355.355,0,0,1-.042.276,3.024,3.024,0,0,1-.191.361.573.573,0,0,1-.191.212,1.511,1.511,0,0,1-.085-.212q.169-.339.382-.679Zm-.445.042a.038.038,0,0,1,.042.043v.085c-.029.057-.057.071-.085.042a.053.053,0,0,1,0-.085C1062.822,368.374,1062.836,368.345,1062.864,368.345Zm-.339.912c0-.042-.015-.064-.042-.064a.053.053,0,0,1,0-.085.124.124,0,0,1,.085-.042h.085a1.123,1.123,0,0,0,.212.3,2.992,2.992,0,0,1,.169.3.166.166,0,0,0-.106.021l-.063.064a.125.125,0,0,1-.085.043l-.085-.128-.127-.085.042-.085a.319.319,0,0,1-.042-.127A.142.142,0,0,1,1062.525,369.257Zm.106.255a.059.059,0,0,0,.042.021c.014,0,.035-.014.064-.043a.126.126,0,0,0-.085-.042C1062.624,369.477,1062.616,369.5,1062.631,369.512Zm-.233.191q0-.127.17-.128C1062.567,369.689,1062.51,369.731,1062.4,369.7Zm1.145-2.121v-.212a.038.038,0,0,0-.042-.042.48.48,0,0,1,.085-.128,1.145,1.145,0,0,1,.106-.233.374.374,0,0,1,.148-.148.17.17,0,0,0,.042.127.12.12,0,0,0,.042.085c-.085.142-.17.3-.254.467a.474.474,0,0,0-.085.127A.037.037,0,0,1,1063.543,367.582Zm-.17.636a.9.9,0,0,1,.212-.594A.684.684,0,0,1,1063.373,368.218Zm1.852-3.775c-.018.053-.028.075-.028.064A.237.237,0,0,1,1065.225,364.444Zm-13.893,14.475a.037.037,0,0,1-.042-.042.139.139,0,0,0,.032.027A.054.054,0,0,0,1051.332,378.918Zm-2.375-2.842v-.064c0-.014.014-.007.042.021Zm-1.59-.127c-.015,0-.007-.014.021-.043l.085-.17.042.043a.482.482,0,0,1-.085.127C1047.4,375.935,1047.38,375.949,1047.366,375.949Zm.148-.3.042-.042a.332.332,0,0,0,.042-.127l.042-.043.085.085a.909.909,0,0,1-.17.212Zm.255,1.23a.523.523,0,0,0-.085-.127l-.085-.085a.277.277,0,0,1,.127-.128l.085-.212a.5.5,0,0,0,.085-.127,1.322,1.322,0,0,0,.17.212v.042l-.127.128a.662.662,0,0,1-.127.17A.33.33,0,0,1,1047.769,376.883Zm.594.17-.085.128a.037.037,0,0,0-.042.042l-.085.085-.042-.043-.042-.127h-.042l-.212-.212a2.232,2.232,0,0,0,.212-.339.123.123,0,0,1,.042-.085l.042-.043a.038.038,0,0,1,.042.043.12.12,0,0,0,.085.042.46.46,0,0,0,.085.128l.085.085a.524.524,0,0,1,.085.127l-.042.043A.487.487,0,0,0,1048.363,377.052Zm-.424-.891a65.961,65.961,0,0,0,.085-.17l.042-.042.17.17a.532.532,0,0,1-.127.212Zm.382.085.339.339a1.955,1.955,0,0,0-.127.212,136.542,136.542,0,0,1-.255-.255l-.085-.127h-.042v-.042h.042a1.755,1.755,0,0,0,.085-.212A.126.126,0,0,1,1048.321,376.246Zm17.3-20.031a.939.939,0,0,0-.509.191,2.015,2.015,0,0,0-.339.4.669.669,0,0,1-.17.255.125.125,0,0,1,.042.085v.085h-.085a.037.037,0,0,1-.042.042l-.127.127a6.8,6.8,0,0,0-.848,1.357v.085a.387.387,0,0,1,.042.17.149.149,0,0,1-.127.127h-.085a.534.534,0,0,1-.127.212l-.085.17a.121.121,0,0,0-.085.042h-.042v.169l-.085.128c-.085.113-.184.255-.3.424a.823.823,0,0,0-.17.424l.085.043c.028.113.056.212.085.3v.085a.122.122,0,0,1-.042.085l-.17.085-.3.042a8.92,8.92,0,0,0-.467.891.356.356,0,0,1-.021.106c-.014.042-.036.106-.064.191a.657.657,0,0,0-.106.233.2.2,0,0,0,.063.191l.042.212h-.106c-.015,0-.029-.014-.042-.042s-.036-.07-.063-.128a.277.277,0,0,0-.127.128l-.085.17-.085.085.042.042v.085a1.1,1.1,0,0,0-.255-.255l-.127-.127h-.085a6.657,6.657,0,0,1-.679-.891h-.085l-.085-.085a.038.038,0,0,0-.042-.043h-.085l-.106-.106a.313.313,0,0,1-.085-.148.236.236,0,0,1,.021-.17.037.037,0,0,1-.042-.042l-.042-.043h-.085l-.127-.212h-.085v-.085a.17.17,0,0,1-.042-.127l-.085-.085h-.085a.121.121,0,0,1-.042-.085c-.029-.028-.042-.049-.042-.064s-.015-.021-.042-.021h-.085a.121.121,0,0,1-.042-.085.412.412,0,0,0-.17-.212h-.042l-.042-.042a.123.123,0,0,1,.042-.085q-.212-.339-.381-.679l-.085.043a.126.126,0,0,0-.042-.085h-.085v-.043a.106.106,0,0,0,0-.169.121.121,0,0,1-.042-.085.037.037,0,0,1,.042-.042h-.085l-.042-.043.042-.085v-.042h-.085l-.042-.043a.122.122,0,0,0,.042-.085.126.126,0,0,0-.042-.085v-.042c-.057,0-.092-.007-.106-.021a.083.083,0,0,1-.021-.064.085.085,0,0,1-.064-.021.09.09,0,0,0-.063-.021v-.042l.042-.085-.042-.042h-.085l-.17-.339h-.085a.172.172,0,0,1-.042-.128.21.21,0,0,0-.042-.106.732.732,0,0,0-.085-.106h-.085l-.042-.17a1.941,1.941,0,0,0-.106-.254.821.821,0,0,0-.148-.212h-.085a1.685,1.685,0,0,0-.127-.339h-.085l-.085-.212h-.085l-.127-.3h-.085a.368.368,0,0,1-.042-.17h-.085l-.042-.042a.124.124,0,0,0-.042-.085h-.085v-.085a.263.263,0,0,1-.063-.106.1.1,0,0,1,.021-.106h.127l.042.043.085.042c0,.029.007.043.021.043s.021-.014.021-.043v-.127a.17.17,0,0,1-.127-.043l-.085-.042a.113.113,0,0,0-.127-.128l-.042-.169h-.085l-.042-.085h-.085l-.042-.17-.127-.042a.716.716,0,0,0-.042-.212h-.085c0-.113-.042-.169-.127-.169l-.042-.043a.126.126,0,0,0-.085-.042v-.043a.12.12,0,0,1-.042-.085h-.085l-.042-.085-.085-.042-.085-.255a.127.127,0,0,0-.085-.043v-.085a.17.17,0,0,1-.127-.042.126.126,0,0,0-.085-.042v-.085h-.042a.124.124,0,0,0-.085-.043l-.085-.042v-.043h-.085l-.042-.127a.871.871,0,0,0-.382,0,1.374,1.374,0,0,1-.339-.043l-.085.043a.517.517,0,0,0-.127-.085.037.037,0,0,1-.042-.042v-.043a.038.038,0,0,0,.042-.042l-.042-.043-.085-.042v-.127l-.127-.043V353.2l-.085-.043a.335.335,0,0,0-.042-.127v-.043a.341.341,0,0,0-.127-.042.382.382,0,0,0-.17.042l-.042.085h.127v.043l.085.042q-.3.043-.255-.212a.38.38,0,0,0-.17-.043l-.042-.127a.265.265,0,0,0-.148.042.743.743,0,0,0-.106.085.038.038,0,0,1-.042.043v.042l-.085.128h-.085l-.085-.043a.369.369,0,0,0-.042.106v.064c.028.029.028.05,0,.064a.29.29,0,0,1-.127.021v.085a.383.383,0,0,1-.106.042q-.022,0-.064-.042l-.085.085a.122.122,0,0,0-.042.085.088.088,0,0,1-.021.064.086.086,0,0,1-.064.021h-.085a.5.5,0,0,0-.127.085l-.085.085a.122.122,0,0,1-.085.043h-.085l-.064.064a.061.061,0,0,0-.021.042v.064l-.127.127v.042l-.085.085v.043a.123.123,0,0,1-.042.085l-.106.106c-.042.043-.05.079-.021.106l-.212.212v.042l-.042.085v.042l-.127.128a.457.457,0,0,1-.085.255.374.374,0,0,0,.042.17l-.085.084.085.255-.085.085.085.255-.085.085c.028.085.056.184.085.3s.057.226.085.339a.921.921,0,0,0,.127.3h.085a1.71,1.71,0,0,1,.212.636,1.272,1.272,0,0,0,.3.721h.042a.124.124,0,0,1,.042.085.261.261,0,0,0,.042.148,1.481,1.481,0,0,1,.085.148h.085l.382.933.085.042.085.128-.042.042v.085a13.9,13.9,0,0,0,.085.085h.042l.17.339q.127.212.233.424a.948.948,0,0,1,.106.424v.043a1.235,1.235,0,0,0,.064.3,1.5,1.5,0,0,0,.191.4q.127.191.255.191l.254.509q.3.509.594.975l.085.043.466.721h.085l.382.551H1054a4.569,4.569,0,0,1,.255.382h.085v.085q.042.254.254.212a.765.765,0,0,0,.254.339h.085l.085.127h.085l.254.3h.085l.382.509h.085a.282.282,0,0,1,.127.128.268.268,0,0,0,.127.127h.085l.085.085c0,.029.028.057.085.085l.17-.043v.043q-.17,0-.042.127a.074.074,0,0,0,.085-.085l.042.043h.127q.042-.084,0-.106a.066.066,0,0,1-.042-.064l-.042-.042h-.085a.334.334,0,0,1-.191-.149c-.042-.07-.092-.148-.149-.233a.7.7,0,0,0-.3-.339h-.042a.31.31,0,0,1-.127-.106l-.127-.191-.17-.255a.249.249,0,0,0-.212-.127l-.3-.424h-.127a4.332,4.332,0,0,1-.255-.382.12.12,0,0,1-.042-.085h-.127a9.4,9.4,0,0,0-.467-.763h-.127a2.182,2.182,0,0,1-.212-.339,2.277,2.277,0,0,0-.212-.339h-.042a1.754,1.754,0,0,1-.255-.339q-.127-.212-.212-.382l.042-.085V362.9c0-.014.014-.035.042-.064l-.085-.127.042-.127-.042-.043h-.085q-.3-.509-.552-1.018l.085-.127a.122.122,0,0,0,.085-.043.343.343,0,0,1,.127.043.316.316,0,0,0,.127.042,8.72,8.72,0,0,0,.467.891,1.554,1.554,0,0,0-.085.212l.127.043v.042a.038.038,0,0,0-.042.043c.056.254.2.354.424.3l.382.594h.127a1.044,1.044,0,0,0,.127.254c.113.2.226.382.339.551h.127a.12.12,0,0,0,.042.085c.028.057.049.1.064.127a.221.221,0,0,0,.106.085H1055a.019.019,0,0,1,.021.021v.148h.085l.382.551h.127l.042.085h.085q.042-.042.127,0h.085a.647.647,0,0,1,.212.255c.028.057.057.113.085.17a.269.269,0,0,0,.127.127h.085a1.343,1.343,0,0,0,.17.212.938.938,0,0,0,.467.467q.254.3.509.551v.042h.127l.042.043h.085a1.743,1.743,0,0,1,.212.254h.127l.042.043a.358.358,0,0,1,.063.085.228.228,0,0,0,.106.085l.042-.043a.281.281,0,0,1,.127.128.067.067,0,0,0,.042.063.372.372,0,0,1,.085.064.122.122,0,0,1,.085-.043l.085.128.085-.043.085.128a.181.181,0,0,0,.17,0l.212.212h.085l.042.042a.32.32,0,0,0,.042.128v.042l.17-.042.042.212-.255.594-.17.042-.085.212.127.424a.279.279,0,0,0,.042.255.037.037,0,0,0-.042.042,7.1,7.1,0,0,1-.382.806v.085a.126.126,0,0,1,.042.085.122.122,0,0,1-.042.085l.042.17a.123.123,0,0,1-.042.085.384.384,0,0,1,.042.17.124.124,0,0,1-.042.085.122.122,0,0,1-.042.084.173.173,0,0,1-.127.043.51.51,0,0,1-.127.085v.042a.126.126,0,0,1,.042.085.122.122,0,0,1-.042.085.12.12,0,0,0,.042.085v.085a.038.038,0,0,0-.042.042h-.085a2.226,2.226,0,0,0-.127.3.122.122,0,0,0,.042.085v.085l-.042.042v.042a.124.124,0,0,0-.085.043.122.122,0,0,0-.085.042v.043a.327.327,0,0,0-.042.127v.085a.038.038,0,0,1,.042.043.291.291,0,0,1-.212.255c.056.142.113.3.17.466a2.955,2.955,0,0,1-.212.424c-.057.142-.114.3-.17.467a.12.12,0,0,0,.042.085v.043a1.565,1.565,0,0,0-.085.212,2.344,2.344,0,0,0-.212.467c-.057.17-.1.311-.127.424v.043a.119.119,0,0,0,.042.085l-.085.17a2.722,2.722,0,0,0-.149.36.263.263,0,0,0,.106.318l.085.212-.085.17a.373.373,0,0,0-.042.169q-.467-.169-.424.509a.558.558,0,0,0,.106.148l.106.106-.17.594a9.847,9.847,0,0,0-.382.975h-.042a.122.122,0,0,1-.085.043.244.244,0,0,1-.085.17,3.111,3.111,0,0,1-.106.339.332.332,0,0,0-.021.254,3.854,3.854,0,0,0,.3-.424h.042a.119.119,0,0,0,.085.042,2.193,2.193,0,0,1-.17.424,6.586,6.586,0,0,0-.233.636,1.018,1.018,0,0,0-.064.509h.127q.212-.085.36-.573t.318-1.039a5.15,5.15,0,0,1,.339-1.1.325.325,0,0,0,.127-.043,1.691,1.691,0,0,1,.212-.084.037.037,0,0,0,.042.042l.127.042a.342.342,0,0,1,.042.128h.042l.042.042a.381.381,0,0,1,.17-.042v.127a.38.38,0,0,1-.042.17l-.085.17c.056.085.078.142.063.169s-.063.057-.148.085a.122.122,0,0,1-.042.085v.043l.042.042v.085a.715.715,0,0,1-.042.17,1.324,1.324,0,0,0-.148.318,1.091,1.091,0,0,0-.064.339c0,.1.028.163.085.191l.17-.085h.042a2.444,2.444,0,0,0,.127-.3c.028-.113.056-.212.085-.3.056-.056.1-.085.127-.085a.329.329,0,0,0,.042-.127.477.477,0,0,0,.042-.212v-.042l-.042-.043a.422.422,0,0,1,.3-.466.327.327,0,0,1,.042-.128l-.127-.255a.473.473,0,0,0,.127-.085.328.328,0,0,0,.042-.127.38.38,0,0,0,.042-.17.337.337,0,0,0-.042-.127,7.141,7.141,0,0,1,.3-.679,5.657,5.657,0,0,0,.509-1.4.457.457,0,0,1-.085-.127,2.9,2.9,0,0,1,.3-.594.123.123,0,0,1,.085-.042l-.042-.17.466-1.145-.042-.17c.085-.2.17-.382.255-.551a.126.126,0,0,0-.042-.085v-.084l.339-.764a.038.038,0,0,0-.042-.042v-.085a.453.453,0,0,1,.085-.255.458.458,0,0,0,.085-.255v-.085a.038.038,0,0,0-.042-.042.384.384,0,0,1,.17-.043v-.042a.038.038,0,0,1,.042-.043.119.119,0,0,1-.042-.084.124.124,0,0,0-.042-.085l.509-1.061a.175.175,0,0,0-.042-.127.33.33,0,0,1,.042-.128,1.456,1.456,0,0,0,.149-.3q.064-.169.127-.318c.042-.1.092-.148.149-.148a.4.4,0,0,1,0,.255.339.339,0,0,1,.127.042l.042-.042.085-.17a.486.486,0,0,0,.085-.128h.127a.124.124,0,0,1,.085-.042.119.119,0,0,0,.085.042.15.15,0,0,1,.127.128l-.085.17a.914.914,0,0,1-.17.3c-.057.057-.127,0-.212-.17l-.085.085a.123.123,0,0,0-.042.085.66.66,0,0,1-.127.17l-.085-.127a.188.188,0,0,0-.106.127.194.194,0,0,0,.042.17,1.347,1.347,0,0,0,.127.148.118.118,0,0,0,.149.021l.042-.085.212-.085a.712.712,0,0,1-.021.17.272.272,0,0,1-.064.127l-.085.17a.126.126,0,0,1,.042.085l.042.042a.548.548,0,0,0-.212.636l-.085.17-.042.042h-.085a.386.386,0,0,1,.042.17,1.1,1.1,0,0,1-.127.255l-.255.594a.125.125,0,0,1,.042.085v.085a1.077,1.077,0,0,1-.127.255,1.736,1.736,0,0,1-.085.211.038.038,0,0,1,.042.043.121.121,0,0,0,.042.085.244.244,0,0,0-.085.17.535.535,0,0,1-.127.212c-.085.029-.135.057-.149.085s.007.1.064.212q-.085.17-.17.382-.127.3-.255.551a.037.037,0,0,0,.042.042v.128a.379.379,0,0,1-.042.169,2.2,2.2,0,0,0-.127.3,1.811,1.811,0,0,1,.085.212.341.341,0,0,0,.106-.021.521.521,0,0,0,.127-.064.67.67,0,0,0,.106-.085l-.042-.085a1.521,1.521,0,0,1,.085-.382.245.245,0,0,0,.085-.17.415.415,0,0,0-.085-.212l.255-.594a.122.122,0,0,0,.085-.042h.042c.057-.141.113-.269.17-.382q.085-.212.17-.382l-.042-.042a.176.176,0,0,0-.042-.128.122.122,0,0,0,.042-.084,1.768,1.768,0,0,0,.085-.212.124.124,0,0,0-.042-.085.381.381,0,0,0-.042-.17.409.409,0,0,1,.339-.3l.042-.085-.042-.169q.212-.424.382-.849a.175.175,0,0,0-.042-.127h.085a.124.124,0,0,0,.042-.085v-.085a.928.928,0,0,1,.127-.3l.17-.424-.042-.085a.123.123,0,0,1,.042-.085l.127-.085a.126.126,0,0,0-.042-.085v-.042a.333.333,0,0,0,.042-.127l.085-.17a.091.091,0,0,0-.021-.064c-.015-.014-.029-.028-.042-.042a.089.089,0,0,0-.064-.021c-.029,0-.036-.006-.021-.021a.259.259,0,0,0,.042-.064l.064-.127.042-.043h.064c.014,0,.021-.014.021-.042l-.042-.127h.085l.042-.042a1.663,1.663,0,0,0,.212-.382.169.169,0,0,1-.042-.127l.339-.636-.085-.17a.538.538,0,0,0,.127-.212.486.486,0,0,1,.085-.128.249.249,0,0,0-.042-.17.12.12,0,0,1-.042-.084.342.342,0,0,1,.021-.106.412.412,0,0,1,.106-.148h.085a2.172,2.172,0,0,0,.254-.509v-.042a.038.038,0,0,0-.042-.043l.17-.085V366.9a.038.038,0,0,0,.042-.043l-.042-.127.254-.467-.042-.17a1.656,1.656,0,0,0,.212-.382,2.224,2.224,0,0,1,.212-.339.037.037,0,0,1-.042-.042v-.085a.866.866,0,0,0,.214-.836c.007-.012.01-.02.019-.034l.127-.212a1.938,1.938,0,0,1,.148-.212c.056-.07.106-.106.148-.106s.064.043.064.128l-.042.085.042.17-.17.254v.085a.126.126,0,0,1,.042.085.123.123,0,0,0-.042.085v.128l-.085.17q-.127.212-.212.382a.125.125,0,0,1,.042.085v.042a2.813,2.813,0,0,1-.17.3,3.056,3.056,0,0,0-.254.551v.128a.124.124,0,0,1-.042.085h-.042a.123.123,0,0,1-.085.042l-.042.043a.5.5,0,0,1-.085.127l.042.042v.128l-.085.17a.121.121,0,0,0,.042.085v.042a.319.319,0,0,0-.17.106.259.259,0,0,0-.042.148v.127a1.774,1.774,0,0,1-.085.212,1.032,1.032,0,0,0-.127.254.172.172,0,0,0,.042.128l-.17.254.042.17v.043l-.042.042.042.17a1.622,1.622,0,0,0-.085.212,1.951,1.951,0,0,0-.127.212.384.384,0,0,1,.042.17q-.17.34-.339.636a.386.386,0,0,1,.042.17v.043a.5.5,0,0,1-.085.127.173.173,0,0,1-.127.043.926.926,0,0,0-.17.382.121.121,0,0,0,.042.085v.042l-.085.17a.926.926,0,0,0-.127.3l.042.128-.3.594.085.127q-.127.3-.255.552c-.057.142-.113.269-.17.382v.042a.321.321,0,0,0,.042.128l-.085.17q-.086.169-.17.381v.043a.121.121,0,0,0,.042.085,3.916,3.916,0,0,1-.212.509,3.083,3.083,0,0,0-.255.552.124.124,0,0,1,.042.085v.042a10.237,10.237,0,0,1-.764,2.5l.042.043v.085l-.042.212-.17.042q-.213.636-.4,1.1t-.3.763q-.107.3-.17.467a2.576,2.576,0,0,0-.085.255.565.565,0,0,0-.021.127v.085a.34.34,0,0,0,.106-.021.191.191,0,0,0,.106-.106c-.085-.085-.057-.17.085-.255a.27.27,0,0,1,.17-.212c.028,0,.035.029.021.085a.857.857,0,0,1-.063.17.835.835,0,0,0-.064.17c-.015.057-.007.085.021.085a.249.249,0,0,0,.127-.212.122.122,0,0,1,.085-.043l.042-.042a2.385,2.385,0,0,0,.127-.3l-.042-.042v-.085a1.485,1.485,0,0,1,.127-.382.122.122,0,0,1,.085-.042l.042-.043a.122.122,0,0,0,.042-.085.788.788,0,0,0,.064-.191.463.463,0,0,0-.021-.233l.085-.255a2.407,2.407,0,0,0,.127-.3l-.042-.169.085-.3h.085a.123.123,0,0,1,.085-.042l.085-.255v-.085l-.042-.084q.169-.466.339-.891.084-.169.17-.382a.119.119,0,0,1-.042-.085c0-.028.028-.07.085-.127.028,0,.042-.007.042-.021v-.064a.126.126,0,0,0-.042-.085.332.332,0,0,0,.042-.127.123.123,0,0,0,.042-.085h.085l.042-.042a.123.123,0,0,0,.042-.085l-.042-.17c.056-.112.113-.24.17-.382q.127-.255.255-.552a.119.119,0,0,1-.042-.084.124.124,0,0,0-.042-.085.5.5,0,0,0,.085-.128,1.678,1.678,0,0,0,.127-.339.338.338,0,0,0-.042-.127l.339-.763a.17.17,0,0,1-.042-.127.923.923,0,0,1,.127-.3,1.75,1.75,0,0,0,.255-.763l.255-.551-.042-.17a2.865,2.865,0,0,0,.169-.3,1.643,1.643,0,0,0,.127-.339l-.042-.17a5.854,5.854,0,0,0,.382-.721,1.218,1.218,0,0,1,.127-.552,1.778,1.778,0,0,0,.064-.254,1.558,1.558,0,0,0,.021-.255q.211-.382.424-.806a.174.174,0,0,0-.042-.127v-.043l.339-.594-.042-.17.254-.509a.534.534,0,0,0,.127-.212v-.17a1.658,1.658,0,0,1,.212-.382v-.212a.954.954,0,0,0,.127-.3.54.54,0,0,0,.127-.212v-.17a.279.279,0,0,0,0-.212,2.236,2.236,0,0,0,.212-.339,2.4,2.4,0,0,0,.467-.975l.424-.679-.042-.17.042-.042v-.212l.554-.87c.041.169.081.338.117.509a.866.866,0,0,1-.077.064v.085a1.089,1.089,0,0,1-.127.255,1.038,1.038,0,0,0-.127.255.126.126,0,0,1,.042.085.5.5,0,0,1-.085.127l-.085.17.042.127-.212.339v.085a.12.12,0,0,0,.042.085.377.377,0,0,0-.17.043.124.124,0,0,1-.042.085.337.337,0,0,1,.042.127q-.3.212-.17.467a1.072,1.072,0,0,1-.127.254,1.039,1.039,0,0,0-.127.255v.043a.037.037,0,0,0,.042.042.664.664,0,0,1-.127.17,2.689,2.689,0,0,0-.17.3l.042.128-.17.382.042.128a1.939,1.939,0,0,0-.127.211l-.085.17a.32.32,0,0,0,.042.128l-.085.17a2.708,2.708,0,0,0-.17.3v.042a.126.126,0,0,1,.042.085,1.047,1.047,0,0,0-.127.255,2.424,2.424,0,0,1-.191.382.45.45,0,0,1-.276.212c.028-.057.035-.078.021-.064a.455.455,0,0,0-.064.106l-.106.212a.938.938,0,0,0-.085.233.325.325,0,0,0,0,.17c.014.043.064.036.148-.021,0-.085.056-.141.17-.169a.563.563,0,0,1-.127.339l.042.128-.17.255a1.714,1.714,0,0,1-.085.212.339.339,0,0,1,.042.127,1.96,1.96,0,0,0-.17.806c-.057.029-.092.036-.106.021l-.106-.106.127-.169-.085-.128.085-.127-.085-.17a.258.258,0,0,0-.17.148c-.028.071-.057.148-.085.233a.322.322,0,0,0,.042.127.173.173,0,0,0-.042.127.122.122,0,0,0-.042.085v.043l.042.042q-.127.254-.255.466l.042.043v.127a.122.122,0,0,1-.042.085l.085.128-.042.085c.028.085.064.127.106.127s.092-.042.148-.127q.339.043.255-.255h-.191c-.015,0-.036-.014-.064-.043l.17-.3.127-.042a.038.038,0,0,0-.042-.043v-.085a.122.122,0,0,0,.085-.042h.042l.085-.17a.289.289,0,0,0,.085-.212v-.042a.038.038,0,0,0-.042-.042,2.123,2.123,0,0,1,.212-.509,3.5,3.5,0,0,0,.148-.339.691.691,0,0,0,.021-.382l.3-.551-.042-.127a.124.124,0,0,0,.042-.085l.339-.636a.389.389,0,0,0-.042-.17.535.535,0,0,0,.127-.212,2.749,2.749,0,0,1,.17-.3v-.043a.125.125,0,0,0-.042-.085,1.044,1.044,0,0,1,.127-.255.539.539,0,0,0,.127-.212v-.085l-.042-.042a2.673,2.673,0,0,1,.17-.3.932.932,0,0,0,.17-.382v-.084l.042-.128a.038.038,0,0,0,.042-.042l-.042-.17.212-.339-.042-.17a.491.491,0,0,0,.085-.127,2.853,2.853,0,0,0,.17-.3v-.169q.212-.382.467-.764v-.042a1.253,1.253,0,0,1-.085-.255c.079-.1.154-.214.226-.325a19.031,19.031,0,0,1-10.365,20.585.666.666,0,0,1-.041-.072.384.384,0,0,0,.042-.17,1.542,1.542,0,0,1,.085-.212.511.511,0,0,0,.127-.085.323.323,0,0,1-.042-.127l.042-.042h.042a.125.125,0,0,0,.042-.085.145.145,0,0,0,.042-.106.147.147,0,0,0-.042-.106.038.038,0,0,1-.042.043h-.17a.123.123,0,0,0-.085.042q-.086.255-.17.445a1.269,1.269,0,0,0-.106.361,2.138,2.138,0,0,0-.021.254,19.04,19.04,0,0,1-17.658-.8,11.854,11.854,0,0,0,3.156-.922,3.091,3.091,0,0,0,.552-.339h.042a.038.038,0,0,0,.042-.043h.085a.538.538,0,0,1,.212-.127l.085-.085.17-.085.255-.17a.657.657,0,0,0,.17-.127l.127-.043a1.356,1.356,0,0,0,.212-.17l.085-.085a.037.037,0,0,0,.042-.042.173.173,0,0,0,.127-.043l.085-.085.594-.509a7.945,7.945,0,0,0,.085-.085.761.761,0,0,0,.212-.212,1.4,1.4,0,0,0,.17-.212l.127-.042a1.418,1.418,0,0,0,.17-.212s0-.006,0-.01l.039-.032a10.372,10.372,0,0,0,1.039-1.018c.24-.282.318-.466.233-.551a.558.558,0,0,1,.212.361.8.8,0,0,1-.042.445l-.17.17a.654.654,0,0,1-.17.127.514.514,0,0,0,.339-.3,1.481,1.481,0,0,0,.3-.3l.339.255a.741.741,0,0,1-.148-.382.526.526,0,0,1,.106-.382q.3.255.552.509a.832.832,0,0,0,.3.255.269.269,0,0,1-.127-.127.637.637,0,0,1-.17-.128.751.751,0,0,1-.212-.424.037.037,0,0,1,.042-.042v-.085a.037.037,0,0,0-.042.042l-.042.043a.814.814,0,0,0-.042-.255,30.082,30.082,0,0,0,4.072,3.987q-.34-.423-.636-.806-.34-.423-.678-.806a.123.123,0,0,0,.075.04.05.05,0,0,1,.01.024v-.021l-.01,0a.233.233,0,0,0-.033-.04l-.085-.085-.085-.085a.12.12,0,0,1-.042-.085.015.015,0,0,0-.014.007s0-.007-.007-.007-.021-.014-.021-.043h-.034a.555.555,0,0,1-.051-.084l-.3-.3v-.042q-.467-.594-.933-1.145l-.933-1.1q.3.3.636.594l.636.636q.848.806,1.654,1.569.805.806,1.612,1.569l-.679-.764a9.931,9.931,0,0,0-.721-.805l1.4,1.4q-.467-.509-.891-1.06-.467-.509-.891-1.018.721.679,1.4,1.4.721.679,1.442,1.4l-.509-.594a15.591,15.591,0,0,0-1.188-1.23,21.539,21.539,0,0,1-2.354-2.693,3.57,3.57,0,0,1-.785-2.905v-.032l.028-.062a.043.043,0,0,1-.028.009v.053c-.071.161-.141.315-.212.456-.114.2-.212.382-.3.552a.307.307,0,0,1-.127-.276.789.789,0,0,1,.085-.36q.636-2.12,1.315-4.242-.849,2.079-1.781,4.157a.424.424,0,0,1-.17-.361,1.525,1.525,0,0,1,.085-.487q.212-.551.424-1.145t.424-1.145a2.628,2.628,0,0,0-.17.3,9.8,9.8,0,0,1,.3-.976l.255-1.018q-.382,1.1-.764,2.163.169-.466.3-.933.169-.508.3-.976-.254.679-.509,1.315-.3.679-.551,1.357.339-1.187.721-2.375.169-.678.382-1.357a1.514,1.514,0,0,0,.085-.658c-.028-.155-.184-.219-.467-.191a.39.39,0,0,0,0,.255.524.524,0,0,0,.127.212,1.808,1.808,0,0,1,.085.212.582.582,0,0,1,.042.382,1.52,1.52,0,0,1-.127.382,32.193,32.193,0,0,1-1.612,3.944q-2.163-3.054-4.5-5.98l-.424-.424q-.255-.254-.488-.509a1.437,1.437,0,0,1-.318-.509v-.042a2.683,2.683,0,0,1-.106-.382.263.263,0,0,1,.021-.191.626.626,0,0,1,.17-.149,2.287,2.287,0,0,0,.382-.382,18.694,18.694,0,0,1,1.654-1.4,7.876,7.876,0,0,0,3.617-6.854,3.678,3.678,0,0,0-.012-.484c.01.163.01.323.012.484a3.482,3.482,0,0,1-.309,1.3v-.678a1.716,1.716,0,0,0-.806,1.018.71.71,0,0,0,.042-.212V357.2a1.379,1.379,0,0,0-.17.212,2.1,2.1,0,0,1-.127.212,4.575,4.575,0,0,0,.636-2.163,1.417,1.417,0,0,1,.212.764,4.845,4.845,0,0,0,.085-1.272c.056.028.085.028.085,0q.085-.042.085-.106V354.7a4.543,4.543,0,0,0-1.824-2.884,5.2,5.2,0,0,0-3.563-.7,10.448,10.448,0,0,0-3.563,1.124,7.962,7.962,0,0,0-3.03,2.7.185.185,0,0,0,.019-.074l-.064.064a.251.251,0,0,0-.042.064.186.186,0,0,0-.021.085h.042a7.113,7.113,0,0,0-.975,2.46,5.693,5.693,0,0,1,.212,1.527,5.828,5.828,0,0,0,.212,1.57,13.1,13.1,0,0,0,.679,1.76,7.519,7.519,0,0,0,.975,1.59,9.3,9.3,0,0,1-2.163-5.556,9.512,9.512,0,0,0,2.121,5.683,16.33,16.33,0,0,0-2.545,2.29,1.348,1.348,0,0,0,.212-.17.656.656,0,0,1,.17-.127,13.186,13.186,0,0,0-2.884,4.326l-.042.042-.085.17a8.82,8.82,0,0,0-.414,1.073c-.054-.164-.107-.328-.156-.494l.04-.091a.639.639,0,0,0,.064-.233,2.172,2.172,0,0,1-.127.212c0,.005,0,.01,0,.015l-.012-.044c0-.018.012-.038.016-.056a1.6,1.6,0,0,1,.085-.212.332.332,0,0,0,.042-.127c0-.028-.015-.028-.042,0v.042l-.115.305a19.044,19.044,0,0,1,34.746-14.875Zm-6.638,14.272a.083.083,0,0,0,.064.021h.085l.127-.3a.172.172,0,0,0-.021-.106.089.089,0,0,0-.064-.021.124.124,0,0,0-.085.043l-.17.255A.44.44,0,0,0,1058.983,370.487Zm-.4.785.127.042.064-.064a.061.061,0,0,0,.021-.043V371.1l-.127-.043-.064.064a.062.062,0,0,0-.021.043Zm.085-1.612a.038.038,0,0,0,.042-.042l.042-.043a.535.535,0,0,0-.127-.212.249.249,0,0,0-.127.212.124.124,0,0,1,.042.085.038.038,0,0,0,.042.043A.122.122,0,0,0,1058.665,369.66Zm-.339,2.206a1.6,1.6,0,0,0,.212-.085c.028-.085.035-.134.021-.148a.534.534,0,0,0-.106-.064.122.122,0,0,0-.085.042.172.172,0,0,0-.127.043.12.12,0,0,0,.042.085A.175.175,0,0,1,1058.326,371.866Zm-.212.976c.056.028.1.036.127.021a.042.042,0,0,0,.021-.064.285.285,0,0,1-.021-.127l-.042-.043A.172.172,0,0,0,1058.114,372.842Zm-.276.339h.064c0-.056-.007-.085-.021-.085s-.021.015-.021.043C1057.831,373.167,1057.824,373.181,1057.838,373.181Zm-.615,2.715c.028,0,.042-.028.042-.085-.029-.028-.05-.035-.063-.021a.084.084,0,0,0-.021.064A.037.037,0,0,0,1057.223,375.9Zm-.212-7.74a.154.154,0,0,0,.064.021c.014,0,.021-.014.021-.043a.067.067,0,0,1-.064-.042.3.3,0,0,0-.042-.064.064.064,0,0,0-.042-.021c-.015,0-.021.015-.021.042A.223.223,0,0,0,1057.011,368.155Zm-.339,8.377c0,.057.014.085.042.085a.038.038,0,0,0,.042-.043.122.122,0,0,1,.042-.085.174.174,0,0,1,.127-.042,1.815,1.815,0,0,0-.085-.212.1.1,0,0,0-.106.085.865.865,0,0,1-.064.17Zm-.339,1.357c.028,0,.056-.035.085-.106s.063-.148.106-.233a.967.967,0,0,0,.085-.233c.014-.07.007-.106-.021-.106a.4.4,0,0,0-.212.3A.575.575,0,0,0,1056.333,377.889Zm5.726-6.362c.056-.028.085-.056.085-.084s-.042-.07-.127-.128a.274.274,0,0,0-.127.128.177.177,0,0,0,0,.169Zm-.382.933h.042a.194.194,0,0,0,.106-.106.2.2,0,0,0-.021-.148.174.174,0,0,1,.042-.128.271.271,0,0,0,.063-.106.2.2,0,0,0-.021-.148.124.124,0,0,1-.085.042.086.086,0,0,0-.063.021l-.064.064a.038.038,0,0,1,.042.042v.043a.382.382,0,0,1-.042.17,1.568,1.568,0,0,0-.085.212A.126.126,0,0,1,1061.677,372.459Zm-.276.764h.064l.085-.212a.038.038,0,0,0-.042-.043h-.085l-.085.17C1061.365,373.2,1061.386,373.223,1061.4,373.223Zm-.36.17v.042q.169-.041.085-.212c-.057-.028-.092-.035-.106-.021a.121.121,0,0,0-.021.085A.143.143,0,0,0,1061.041,373.393Zm-.255,1.739a.268.268,0,0,0,.127-.148.632.632,0,0,0,.042-.234c-.17-.056-.255.015-.255.212Zm-.382,2.375a.126.126,0,0,1,.085.042.123.123,0,0,1,.085-.042.492.492,0,0,1,.127-.085l.17-.339-.042-.085a.373.373,0,0,1-.042-.17h-.17l-.085.17a2.01,2.01,0,0,1-.106.255A.32.32,0,0,0,1060.4,377.507Zm-.127-.891c.085.085.155.071.212-.043l-.085-.212C1060.262,376.419,1060.22,376.5,1060.277,376.616Zm3.9-3.817a.154.154,0,0,0,.127-.212A.154.154,0,0,0,1064.179,372.8Zm-.318.954a1.08,1.08,0,0,0,.064.148l.064-.064a.061.061,0,0,0,.021-.042v-.063a.335.335,0,0,0-.127-.043C1063.854,373.69,1063.846,373.711,1063.861,373.753Zm-.233.106c.028-.028.035-.049.021-.064a.088.088,0,0,0-.063-.021C1063.557,373.831,1063.571,373.859,1063.628,373.859Zm-.551,2.417a.166.166,0,0,0,.127.17.948.948,0,0,0,.127-.3c-.028-.028-.042-.049-.042-.064s-.015-.021-.042-.021h-.085l-.085.127Zm-3.139,2.82a.176.176,0,0,0,.085.021.037.037,0,0,0,.042-.042.07.07,0,0,0-.042-.064.155.155,0,0,0-.127.021A.067.067,0,0,0,1059.938,379.1Zm-.594.531c0,.029.014.036.042.021s.042-.049.042-.106a.375.375,0,0,0,.17-.043c-.057-.113-.127-.141-.212-.085a.145.145,0,0,0-.042.106Zm-3.075,3.054h.064l.042-.212c0-.057-.007-.078-.021-.064l-.064.064a.315.315,0,0,0-.064.084.182.182,0,0,0-.021.085C1056.233,382.667,1056.254,382.681,1056.269,382.681Zm-.806-15.672a.088.088,0,0,0,.021-.064c-.028-.028-.05-.035-.063-.021a.085.085,0,0,0-.021.064C1055.427,367.017,1055.448,367.024,1055.463,367.01Zm-.568,14.368.042.043c.056.057.1.085.127.085l-.085-.128-.085-.085h-.042Zm-14.378,1.315h.042a.662.662,0,0,0,.191-.021c.042-.015.064-.036.064-.064A.517.517,0,0,0,1040.517,382.693Zm2.927-1.463-.127.064a.3.3,0,0,0,.127-.021.335.335,0,0,0,.085-.064A.193.193,0,0,0,1043.443,381.23Zm1.887-.3c-.015-.014-.05-.007-.106.021a6.865,6.865,0,0,1-1.018.763l-.17.085a.174.174,0,0,0-.127.042,1.121,1.121,0,0,0-.3.212l.212-.085q.678-.423,1.315-.89a.124.124,0,0,0,.085-.042.122.122,0,0,0,.085-.043C1045.337,380.969,1045.344,380.948,1045.331,380.933Zm.742-.658-.255.254-.169.17a3.889,3.889,0,0,0,.318-.276l.17-.17.085-.085.064-.064A.909.909,0,0,0,1046.073,380.276Zm1.675-2.905c.014.015.035-.007.064-.063.028-.028.035-.043.021-.043h-.042c-.015,0-.021.015-.021.043C1047.741,377.335,1047.733,377.356,1047.748,377.37Zm.36.657-.127.128c-.057.085-.127.184-.212.3a1.714,1.714,0,0,1-.212.255.386.386,0,0,0,.212-.212l.127-.128a3.837,3.837,0,0,0,.424-.594A2.513,2.513,0,0,0,1048.109,378.027Zm.509.509a.037.037,0,0,0,.042.043v-.043h-.042c0-.028-.007-.042-.021-.042S1048.589,378.509,1048.618,378.537Zm-.021-1.293a.279.279,0,0,0-.064-.043.077.077,0,0,1-.029-.024c0,.008,0,.019.008.024l.042.043.064.064A.087.087,0,0,0,1048.6,377.243Zm-.064.53a.533.533,0,0,0,.3.254.692.692,0,0,0-.17-.127A.281.281,0,0,0,1048.533,377.773Zm1.569.636c-.028-.028-.042-.028-.042,0a.038.038,0,0,1,.042.042h.042A.037.037,0,0,1,1050.1,378.41Zm1.018,1.611a.126.126,0,0,0-.042-.085l-.551-.551-.509-.552-.085-.127-.17-.127a.758.758,0,0,0-.191-.276l-.318-.318a.678.678,0,0,0-.17-.127.125.125,0,0,0-.042-.085,1.324,1.324,0,0,0-.148-.191.484.484,0,0,0-.106-.085.225.225,0,0,1-.064-.042.085.085,0,0,1-.021-.063.17.17,0,0,0,.042.127l.042.042a1.46,1.46,0,0,0,.3.3.121.121,0,0,0,.042.085.037.037,0,0,0,.042.042,1.465,1.465,0,0,0,.3.3.633.633,0,0,0,.127.17l.085.128.467.424.085.128.382.382a.12.12,0,0,0,.042.084,107.275,107.275,0,0,0,.255.255.313.313,0,0,0,.106.17,1.223,1.223,0,0,0,.148.085A.126.126,0,0,0,1051.12,380.021Zm.127.17a.635.635,0,0,0,.127.17l.191.191c.07.071.12.106.149.106a1.7,1.7,0,0,1-.127-.148,1.275,1.275,0,0,0-.191-.191A1.853,1.853,0,0,1,1051.247,380.191Zm.509-.212-.085-.085c-.085-.113-.135-.162-.148-.148s-.007.049.021.106l.085.085h.042a.119.119,0,0,0,.042.085v.043l.085.085C1051.883,380.149,1051.869,380.092,1051.756,379.979Zm-2.333-6.277c-.028.029-.028.043,0,.043Zm1.272-2.163a.491.491,0,0,0,.085-.191c.028-.1.056-.2.085-.3a.925.925,0,0,0,.042-.233.478.478,0,0,0-.085.191c-.029.1-.064.205-.106.318a.918.918,0,0,0-.064.212Zm-.679,3.69a.122.122,0,0,1,.042-.085.038.038,0,0,0-.042.043Zm.255-4.072a.124.124,0,0,1-.042.085v.042l-.085.255.085-.128a.329.329,0,0,0,.042-.127.123.123,0,0,0,.042-.085.038.038,0,0,0,.042-.042v-.043a.122.122,0,0,0,.042-.085Q1050.356,370.9,1050.272,371.157Zm-.424,2.375.382-.806a7.105,7.105,0,0,0,.382-.806A8.382,8.382,0,0,0,1049.848,373.532Zm-.636-.763a.5.5,0,0,0-.085.128c0-.028-.007-.021-.021.021a1.279,1.279,0,0,1-.064.149.478.478,0,0,1-.042.212l-.085.169a.328.328,0,0,0-.042.128c0,.029.014.029.042,0a1.6,1.6,0,0,1,.127-.339.48.48,0,0,1,.085-.128,5,5,0,0,0,.212-.594Q1049.3,372.514,1049.211,372.768Zm.4-1a.251.251,0,0,0-.042.064.621.621,0,0,0-.042.127.273.273,0,0,1-.064.128.172.172,0,0,1-.042.127c0,.029-.007.043-.021.043s-.021.015-.021.042a.037.037,0,0,0,.042-.042v-.043a.068.068,0,0,0,.064-.042.676.676,0,0,0,.042-.128c.014-.056.028-.106.042-.148a.266.266,0,0,1,.063-.106C1049.635,371.765,1049.628,371.758,1049.614,371.772Zm.467-4.432c.014,0,.035-.014.064-.043v-.084a.706.706,0,0,0,.042-.212l-.085.17-.042.127C1050.06,367.326,1050.066,367.34,1050.081,367.34Zm-8.249-16.16c0-.028.007-.042.021-.042h-.021a.037.037,0,0,0-.042.042Zm-7.189,6.977a.168.168,0,0,0,.021-.106c0-.085-.007-.128-.021-.128s-.021.043-.021.128S1034.628,358.171,1034.642,358.157Zm1.548,5.874v.042h.042a.119.119,0,0,1-.042-.085h-.042ZM1035,362.1l.029.049a2.145,2.145,0,0,0,.225.439l.085.255c.056.029.085.036.085.021a.311.311,0,0,0-.064-.106,1.367,1.367,0,0,1-.127-.212l-.127-.255c-.03-.059-.054-.1-.077-.143-.009-.023-.021-.047-.029-.069C1034.974,362.052,1034.974,362.059,1035,362.1Zm-1.548,4.708a.467.467,0,0,0-.063.106l.063-.064.064-.064a.122.122,0,0,0,.042-.085Zm.127.085,0,0-.017.017h0l-.085.084-.339.339v.042l-.042.043a1.181,1.181,0,0,1-.191.318,3.315,3.315,0,0,1-.233.275l-.085.085a1.127,1.127,0,0,0-.212.3.522.522,0,0,0-.127.212.149.149,0,0,0-.127.127c-.028,0-.071.057-.127.17s-.127.241-.212.382-.163.269-.233.382a.563.563,0,0,0-.106.255.458.458,0,0,0,.085-.148.563.563,0,0,1,.127-.191.525.525,0,0,1,.127-.212v-.043a.487.487,0,0,0,.085-.127l.3-.467.127-.127a4.49,4.49,0,0,1,.255-.382l.085-.085a.15.15,0,0,1,.127-.128,5.8,5.8,0,0,1,.382-.509,11.921,11.921,0,0,1,.085-.085.341.341,0,0,1,.085-.064.138.138,0,0,0,.063-.064.186.186,0,0,0,.021-.084.038.038,0,0,0-.042-.043.277.277,0,0,0,.127-.127.476.476,0,0,1,.085-.127l.017-.017Zm.127-.021c-.015,0-.036.015-.064.043s-.042.049-.042.064.007.014.021,0a.086.086,0,0,1,.064-.021C1033.716,366.9,1033.723,366.873,1033.709,366.873Zm.466-7.974c-.015-.028-.021-.014-.021.043q.042.34.085.636v.466c.028.057.049.1.063.128a.193.193,0,0,1,.021.085,7.287,7.287,0,0,0,.424,1.187v.043c.028.029.049.05.063.063a.064.064,0,0,1,.021.043v-.021a.34.34,0,0,0-.042-.128l-.042-.169a.176.176,0,0,0-.042-.128,6.172,6.172,0,0,1-.212-.678v-.127c-.028-.141-.057-.269-.085-.382l-.085-.339v-.382a.175.175,0,0,0-.042-.127v.212a.659.659,0,0,1,0,.339,1.946,1.946,0,0,1-.042-.382.734.734,0,0,1-.042-.233A.365.365,0,0,0,1034.176,358.9Zm1.336-4.5a.122.122,0,0,0-.042.085.608.608,0,0,0,.106-.128.187.187,0,0,0,.021-.084A.5.5,0,0,1,1035.512,354.4Zm.106.064a1.424,1.424,0,0,0-.106.148l-.085.085a1.44,1.44,0,0,1-.17.212v.042a.326.326,0,0,0-.042.127l-.339.679h-.042l-.042.127-.17.339a1.694,1.694,0,0,1-.085.212v.043a.49.49,0,0,1-.085.127v.085a3.949,3.949,0,0,0-.17.594q-.043.255-.063.467a.586.586,0,0,0,.021.3q.041-.3.063-.424a1.571,1.571,0,0,0,.021-.255v-.042a.334.334,0,0,0,.042-.128l.17-.594.17-.339a1.486,1.486,0,0,1,.127-.382.476.476,0,0,1,.085-.127.038.038,0,0,0,.042-.043,2.753,2.753,0,0,1,.339-.636l.085-.085a.123.123,0,0,0,.042-.084.121.121,0,0,1,.042-.085l.042-.043h-.085a.565.565,0,0,1,.106-.148.338.338,0,0,0,.085-.127C1035.632,354.467,1035.632,354.453,1035.618,354.467Zm.127-.021c-.015,0-.036.015-.064.043s-.036.049-.021.064.035.007.064-.021C1035.752,354.474,1035.759,354.446,1035.745,354.446Zm7.868-3.478h-1.018a1.58,1.58,0,0,0-.382.043h-.3a.7.7,0,0,1-.212.042h-.127l-.127.085-.085.042h-.17c-.142.029-.269.057-.382.085a.375.375,0,0,1-.17.043.362.362,0,0,1-.191.064q-.149.022-.318.064a1.272,1.272,0,0,1-.255.085h-.085a.038.038,0,0,1-.042.043h-.085a.037.037,0,0,0-.042.042,2.374,2.374,0,0,0-.467.212l-.17.042a.038.038,0,0,0-.042.043h-.085l-.127.084a2.931,2.931,0,0,0-.3.17l-.17.085h-.042l-.042.043a6.7,6.7,0,0,1-.848.509.66.66,0,0,1-.17.128l-.042.042a.484.484,0,0,0-.085.127l-.127.043a.275.275,0,0,1-.127.127l-.254.255-.085.127a.491.491,0,0,0-.085.128,1.407,1.407,0,0,0-.212.17c-.028.057-.036.078-.021.064l.064-.064.085-.085.085-.085a.475.475,0,0,1,.17-.085v-.043l.148-.148a.56.56,0,0,1,.148-.106.481.481,0,0,1,.127-.085l.255-.255.169-.085.085-.085a.383.383,0,0,1,.17-.042,1.381,1.381,0,0,1,.212-.17l.085-.085.17-.042a1.138,1.138,0,0,1,.3-.212.5.5,0,0,1,.127-.085.383.383,0,0,1,.17-.042,1.13,1.13,0,0,0,.3-.212h.127a.486.486,0,0,0,.127-.084,1.04,1.04,0,0,0,.254-.128h.127a.526.526,0,0,0,.212-.127.172.172,0,0,0,.127-.043h.042a.323.323,0,0,0,.127-.042.327.327,0,0,0,.127-.043.122.122,0,0,0,.085-.042h.17a1.678,1.678,0,0,1,.339-.128h.085a.122.122,0,0,0,.085-.042q.3-.084.636-.17l.085-.042a1.234,1.234,0,0,0,.3-.043.522.522,0,0,0,.3,0,.124.124,0,0,0,.085-.042.126.126,0,0,1,.085.042h.085a.333.333,0,0,1,.127-.042h.785a.231.231,0,0,0,.106-.021C1043.641,350.975,1043.641,350.968,1043.613,350.968Zm-8.249,3.839a.086.086,0,0,1,.064-.021.124.124,0,0,1-.042.085C1035.356,354.842,1035.349,354.821,1035.363,354.807Zm-2.078,12.385a.086.086,0,0,1,.064-.021.122.122,0,0,1-.042.085C1033.278,367.227,1033.27,367.206,1033.285,367.191Zm13.13,11.378q-.788.663-1.636,1.325-.87.679-1.463,1.061l-.17.085a4.787,4.787,0,0,1-.509.3.174.174,0,0,0-.127.042c-.085.029-.184.057-.3.085a2.339,2.339,0,0,1-.467.212h-.127l-.17.085c-.113.029-.24.057-.382.085h-.042a.037.037,0,0,1-.042-.042,1.658,1.658,0,0,0,.212-.085.47.47,0,0,0,.212-.043.123.123,0,0,1,.085-.042h.127a.122.122,0,0,1,.085-.043h.127q.084-.042.233-.106a1.686,1.686,0,0,0,.276-.148c.085-.056.162-.106.233-.148s.092-.064.064-.064a.332.332,0,0,0-.127.042c-.113.057-.17.078-.17.064s.035-.042.106-.085l.212-.127c.07-.043.134-.078.191-.106h.042l.085-.042h.085l.127-.128a.925.925,0,0,0,.3-.127l.17-.085.085.042a.472.472,0,0,0,.127-.085.122.122,0,0,0,.042-.085v-.042a.5.5,0,0,0,.085-.127,5.256,5.256,0,0,0,.636-.467,921.87,921.87,0,0,1,.255-.17l.254-.254a.493.493,0,0,1,.127-.085l.255-.255a.175.175,0,0,1,.127-.042.758.758,0,0,1,.212-.212,1.388,1.388,0,0,1,.17-.212l.085-.042a1.427,1.427,0,0,0,.17-.212l.085-.085a.037.037,0,0,1,.042-.042.124.124,0,0,1,.085-.043,1.135,1.135,0,0,1,.212-.3l.127-.127.17-.212q.084-.126.212-.3l.085-.085a4.521,4.521,0,0,1,.254-.382,15.171,15.171,0,0,0,.085.085.527.527,0,0,1,.085.128.122.122,0,0,0-.042.085.276.276,0,0,1-.127.127c-.028,0-.028.015,0,.043v.042a.038.038,0,0,0-.042.042l-.127.085a.122.122,0,0,1-.042.085q-.254.34-.466.636l-.085.085h-.042c-.085.113-.184.241-.3.382A.036.036,0,0,0,1046.415,378.569Zm11.062-.638a.378.378,0,0,1-.042.17v.042a.153.153,0,0,1,.021.128c-.015.029-.063.029-.148,0v-.148a.339.339,0,0,1,.042-.148l.085-.128C1057.463,377.846,1057.478,377.875,1057.478,377.931Zm-26.32-6.074-.01-.032q.083-.208.166-.457C1031.257,371.532,1031.206,371.694,1031.157,371.857Zm5.712-7.614-.042-.042h.042l.042-.043a.037.037,0,0,0,.042-.042H1037v.042a.126.126,0,0,1,.042.085l-.127.043v.042Zm9.331-6.659v-.042h.042Zm-1.951,1.527a2.844,2.844,0,0,0-.254.3.449.449,0,0,1-.17.085c-.085.057-.184.121-.3.191a1.483,1.483,0,0,0-.254.191,1.873,1.873,0,0,1-.212.128,1.018,1.018,0,0,1-.255.127l-.042.043a.989.989,0,0,1-.148.127.737.737,0,0,0-.106.085.122.122,0,0,0-.085.043l-.085.085-.127.064a.265.265,0,0,0-.064.042.086.086,0,0,1-.064.021.123.123,0,0,0-.085.042h-.085l-.085.085a.123.123,0,0,0-.042.085l-.127.128a.663.663,0,0,1-.17.127.655.655,0,0,1-.17.127,1.433,1.433,0,0,0-.212.17.5.5,0,0,0-.127.085c-.085.057-.184.127-.3.212l-.127.043-.212.17-.127.042-.127.128a.657.657,0,0,0-.17.127h-.042a.037.037,0,0,1-.042.042v-.042a.037.037,0,0,1-.042-.042.038.038,0,0,0,.042-.043c.085-.056.183-.127.3-.212h.042a.122.122,0,0,1,.085-.043l.085-.085.085-.085a.347.347,0,0,1,.085-.064c.028-.014.042-.028.042-.042s-.007-.014-.021,0l-.106.106-.127.043-.17.17h-.085a.487.487,0,0,0-.127.085.5.5,0,0,1-.127.085h-.042v.042l-.17-.255-.085-.085v-.042l-.042-.043a6.716,6.716,0,0,1-.382-.594.172.172,0,0,1-.042-.127q-.213-.339-.382-.636v-.128a2.824,2.824,0,0,1-.3-.763v-.085a2.49,2.49,0,0,1-.085-1.1v-.042c.028-.085.056-.184.085-.3a2.23,2.23,0,0,1,.339-.848.086.086,0,0,0,.064-.021.061.061,0,0,0,.021-.042.371.371,0,0,1,.042-.106l.127-.127a.532.532,0,0,0,.127-.212l.212-.212a5.659,5.659,0,0,1,1.484-1.061.038.038,0,0,1,.042-.042v-.043l.17-.085h.085l.254-.127c.17-.056.325-.113.467-.169s.24-.1.3-.128a.121.121,0,0,0,.085-.042h.085q.382-.084.721-.128l.085-.042a.48.48,0,0,1,.212-.043.086.086,0,0,1,.021-.064.171.171,0,0,1,.106-.021h.085a.481.481,0,0,1,.212.043l.042-.043h.042l.339.085.169.085.17.085c.057.029.085.057.085.085h.042a1.089,1.089,0,0,1,.255.255.517.517,0,0,1,.085.127h.042a2.437,2.437,0,0,1,.169.551l.042.085v.3a1.458,1.458,0,0,1-.3.721v.043a.037.037,0,0,1-.042.042.122.122,0,0,1-.042.085.038.038,0,0,1,.042.043.122.122,0,0,1-.042.084l-.127.128a.122.122,0,0,0-.042.085v.042l-.085.085h-.042v.043a.5.5,0,0,0,.127-.085.123.123,0,0,0,.085-.043l.255-.085a.654.654,0,0,1,.127-.17h.085a.037.037,0,0,0,.042-.042c.056.029.07.064.042.106a1.014,1.014,0,0,1-.127.149v.042a.124.124,0,0,0-.042.085h.085v.043a.038.038,0,0,1,.042.042,27.468,27.468,0,0,0,.17-.085h.042v.085h.085l.042-.042a.038.038,0,0,1,.042.042h.042l.127-.127.148-.149a.174.174,0,0,1,.106-.064.653.653,0,0,1-.127.17v.043a.173.173,0,0,1-.042.127h.042a.075.075,0,0,0,.085-.085.038.038,0,0,1,.042-.042l.17-.17a.038.038,0,0,1,.042-.043c-.029.029-.042.05-.042.064v.043c0,.015-.015.036-.042.064a.473.473,0,0,0-.042.212v.043l-.042.085-.042.042a.777.777,0,0,1-.254.339,2.974,2.974,0,0,1-.212.424l-.17.17v.127a1.443,1.443,0,0,1-.17.212l-.127.127-.042-.042.042-.085-.085-.043a.347.347,0,0,0,.127-.212v-.043c.028,0,.057-.028.085-.085a.8.8,0,0,1,.042-.255l-.17.17a.657.657,0,0,1-.127.17,1.252,1.252,0,0,1-.552.551.343.343,0,0,1,.021-.106.26.26,0,0,1,.064-.106.122.122,0,0,1,.042-.085l-.255.128A.122.122,0,0,1,1044.249,359.111Zm.976-1.781a.038.038,0,0,1-.042.042A.038.038,0,0,1,1045.224,357.33Zm-1.187,14a.067.067,0,0,1-.064-.042.182.182,0,0,1-.021-.085v-.042a.086.086,0,0,1,.064.021l.042.042a.088.088,0,0,1,.021.064v.042c0,.029-.007.043-.021.043S1044.037,371.355,1044.037,371.326Zm.339.424a.361.361,0,0,1-.042-.106c0-.014.014-.006.042.021l.106.106a.823.823,0,0,0,.127.106.331.331,0,0,1,.106.128.037.037,0,0,0,.042.042.119.119,0,0,0,.042.085.527.527,0,0,1,.085.128l.17.17.085.169v.043c.028.085.057.134.085.148a.068.068,0,0,0,.085-.021.038.038,0,0,1,.042.043.126.126,0,0,1,.085.042l.467.467a.12.12,0,0,0,.042.085.46.46,0,0,0,.085.127.773.773,0,0,1,.212.212l.085.127.085.085a.267.267,0,0,0,.127.127v.043l.212.212a.691.691,0,0,1,.127.17l.042.085a.654.654,0,0,1-.127.17.123.123,0,0,1-.042.085.12.12,0,0,1-.042-.085.122.122,0,0,1-.085-.042l-.042-.085-.17-.17a.64.64,0,0,1-.127-.17.119.119,0,0,1-.042-.085,5.2,5.2,0,0,0-.551-.551.339.339,0,0,0-.042-.128l-.042-.042a1.353,1.353,0,0,1-.17-.212l-.085-.085-.3-.339-.042-.127a.453.453,0,0,1-.127-.085.531.531,0,0,0-.085-.128l-.085-.084-.424-.509a.12.12,0,0,1-.042-.085l-.254-.255a.652.652,0,0,0-.212-.255v-.042l-.042-.042a.65.65,0,0,1-.127-.17.891.891,0,0,1-.17-.212c-.029-.028-.036-.043-.021-.043s.021-.014.021-.042a.677.677,0,0,1,.17.127.468.468,0,0,0,.085.127l.042.043a.12.12,0,0,0,.042.085l.042.085.042.042.042.085.127.127a2.086,2.086,0,0,0,.191.17c.07.057.127.106.17.148a.171.171,0,0,0,.106.064l-.085-.085A.038.038,0,0,0,1044.376,371.75Zm-2.5,9.628h.042v.043a.145.145,0,0,1-.106.042h-.106l-.042.043v-.043c.028-.028.049-.042.064-.042a.061.061,0,0,0,.042-.021A.167.167,0,0,1,1041.874,381.378Zm-7.677-6.956.042-.127a6.274,6.274,0,0,1,.17-1.018l.085-.127a8.506,8.506,0,0,1,.594-1.527l.085-.085c.113-.17.24-.367.382-.594a5.434,5.434,0,0,1,.763-1.1.472.472,0,0,0,.106-.064.254.254,0,0,0,.042-.064.332.332,0,0,1,.064-.085l.339-.339a.653.653,0,0,1,.127-.169l.042-.085.17-.17h.042l.042-.085a22.027,22.027,0,0,1,1.909-1.7l.042-.042a.125.125,0,0,1,.042.085l.085.085a.688.688,0,0,1,.127.169.459.459,0,0,0,.127.085.126.126,0,0,0-.042-.085v-.042l.127.127a9.265,9.265,0,0,0,.085.085.126.126,0,0,1,.042.085c.141.142.282.3.424.466a3.074,3.074,0,0,0,.3.339.169.169,0,0,0,.042.127,3.068,3.068,0,0,0,.3.339v.043l.042.042a1357.978,1357.978,0,0,0,.509.594l.042.085a3.064,3.064,0,0,0,.3.339.7.7,0,0,1,.127.17.524.524,0,0,1,.085.127l-.021-.021.021.021h0l.042.043a1.405,1.405,0,0,1,.106.127,1.3,1.3,0,0,0,.127.148l.085.085c.014.015.021.007.021-.021l-.17-.17-.042-.128-.212-.255-.042-.042v-.042l-.17-.17a.64.64,0,0,1-.127-.17.242.242,0,0,1-.085-.17V369.5q-.213-.3-.3-.254v-.042a.477.477,0,0,1-.127-.085v-.085a.037.037,0,0,1-.042-.043l-.3-.339-.042-.127-.212-.212a.038.038,0,0,0-.042-.043.176.176,0,0,0-.042-.127V368.1a.525.525,0,0,0-.085-.127.531.531,0,0,0-.085-.128l.127.043.042.085.085.127.127.17v.043a.042.042,0,0,1-.032-.011l.032.1a.643.643,0,0,1,.106.127.213.213,0,0,0,.042.064.084.084,0,0,0,.064.021.126.126,0,0,0-.042-.085v-.042l.042-.043a.12.12,0,0,0,.085.043l.17.084a5.827,5.827,0,0,0,.551.637l.933,1.1a.127.127,0,0,1,.085.043,4.354,4.354,0,0,1,.3.34l.127.127.127.085a.038.038,0,0,1,.042.042l.064.064a.087.087,0,0,1,.021.064c.028,0,.042.007.042.021v.063l.3.339.17.085a.126.126,0,0,1,.042.085,4.327,4.327,0,0,0,.339.382l.3.3a.122.122,0,0,0,.042.085,1.444,1.444,0,0,1,.17.212l.127.127a.119.119,0,0,0,.042.085v.043q.254.255.509.551a.126.126,0,0,1,.085.043l.085.127a3.091,3.091,0,0,0,.3.34,4.317,4.317,0,0,0,.339.382l.085.128a5.321,5.321,0,0,1,.382.424.329.329,0,0,1-.042.128.666.666,0,0,1-.127.17l-.085.085a.038.038,0,0,1-.042.042.173.173,0,0,1-.042.127l-.17.17a.172.172,0,0,1-.042.127l-.127.085-.042.128-.127.085-.127.17a.5.5,0,0,1-.085.127,2.806,2.806,0,0,1-.3.255l-.212.212a1.379,1.379,0,0,0-.169.212.273.273,0,0,0-.127.127l-.042.085a.122.122,0,0,1-.085.042.274.274,0,0,0-.127.128l-.085.084h-.042a.673.673,0,0,0-.17.128l-.3.3a.122.122,0,0,0-.085.043h-.042l-.085.084a.123.123,0,0,0-.042.085l-.127.043a.122.122,0,0,1-.085.042l-.085.085-.382.255v.043h-.085a1.418,1.418,0,0,1-.212.17,2.276,2.276,0,0,1-.339.212.469.469,0,0,1-.212.042l-.255.17-.127.043-.17.085h-.127a.475.475,0,0,0-.127.085h-.042a.172.172,0,0,0-.127.042.381.381,0,0,1-.17.043.121.121,0,0,0-.085.042h-.042a.123.123,0,0,0-.085.042.481.481,0,0,0-.212.042h-.085a.336.336,0,0,0-.127.043.382.382,0,0,0-.17.042h-.085a1.28,1.28,0,0,0-.3.043h-.085a1.6,1.6,0,0,0-.382.042h-.424a.169.169,0,0,1-.127-.042h-.17a1.226,1.226,0,0,1-.3-.043h-.085a.386.386,0,0,0-.17-.042.17.17,0,0,1-.127-.043h-.127a.37.37,0,0,1-.17-.042l-.085-.042-.17-.042-.127-.043-.339-.085-.042-.042a1.1,1.1,0,0,0-.255-.128,1.567,1.567,0,0,1-.212-.085h-.042v-.042a.455.455,0,0,1-.127-.085,1.516,1.516,0,0,1-.212-.085l-.042-.043v-.042a.622.622,0,0,1-.3-.17h-.042a.126.126,0,0,0-.042-.085.634.634,0,0,1-.17-.127.27.27,0,0,1-.127-.128.037.037,0,0,1-.042-.042V378.2a.119.119,0,0,1-.085-.042,2.738,2.738,0,0,1-.254-.3l-.042-.085a4.478,4.478,0,0,0-.255-.382.121.121,0,0,1-.042-.085,1.543,1.543,0,0,1-.085-.212l-.17-.339v-.17a2.314,2.314,0,0,1-.127-.424v-.085a5.332,5.332,0,0,1-.127-.721.175.175,0,0,0,.042-.128A3.782,3.782,0,0,1,1034.2,374.422Zm7-5.641c-.028-.028-.049-.035-.064-.021s-.007.036.021.064a.037.037,0,0,0,.042.043.121.121,0,0,0,.042.085Zm3.987,5.81a1.091,1.091,0,0,1,.127.148.524.524,0,0,0,.064.085.083.083,0,0,0,.063.021.691.691,0,0,0-.127-.17l-.191-.191c-.071-.07-.121-.12-.148-.148A2.349,2.349,0,0,0,1045.182,374.592Zm-.7-2.014-.042-.043-.064-.064a.083.083,0,0,0,.021.064l.042.043.064.063A.089.089,0,0,0,1044.482,372.578Zm-.657.53a4.789,4.789,0,0,1,.339.382l.509.509a.119.119,0,0,0,.042.084c.028.029.049.043.063.043s.007-.028-.021-.085q-.34-.339-.679-.721a.17.17,0,0,1-.042-.127.121.121,0,0,1-.085-.042,1.433,1.433,0,0,0-.17-.212Zm-1.272-2.205a.457.457,0,0,0,.085.127c.028.029.042.029.042,0a.693.693,0,0,0-.127-.169Zm-.255.382a.038.038,0,0,0-.042-.042A.038.038,0,0,0,1042.3,371.284Zm-.467-.551h0l.127.128v.042l.042.042a.374.374,0,0,1,.064.085.219.219,0,0,0,.106.085v-.042l-.212-.212a.281.281,0,0,0-.127-.128h0v-.042h-.042Zm-2.015-2.99a1.086,1.086,0,0,0,.17.212l.148.148.042.128.085.085.212.212-.042-.127a.32.32,0,0,1-.064-.085.363.363,0,0,0-.064-.085v-.043a4.314,4.314,0,0,1-.339-.382l-.17-.17q-.086-.084-.063-.042C1039.746,367.622,1039.774,367.672,1039.817,367.743Zm-.17-.043.042.043c.014.015.028.029.042.042s.021.007.021-.021l-.127-.127A.083.083,0,0,0,1039.647,367.7Z" transform="translate(-1030.156 -346.72)" fill="#d52626"/>
    </g>
  </g>
</svg>
